<svg xmlns="http://www.w3.org/2000/svg" viewBox="779.4 0 363.1 1620.5"><path fill="#F1F2F2" d="M963.2 1614.7c1 0 2 .7 2.7 1.9V5.7h-5.1v1610.5c.7-1 1.5-1.5 2.4-1.5z"/><path fill="#F1F2F2" d="M963.6 803.5h-5.7l.2 7h5.5v-7zm-139.2 213.7l-5.1 4.8c5.2 5.4 10.9 10.6 17.1 15.4l4.3-5.5c-5.9-4.6-11.4-9.5-16.3-14.7zm-1.8-160.8c-5.6 5.5-10.7 11.4-15.1 17.4l5.7 4.1c4.2-5.8 9-11.3 14.3-16.6l-4.9-4.9zm36.8-27.2c-6.8 3.7-13.3 7.9-19.3 12.3l4.1 5.6c5.8-4.3 12.1-8.2 18.6-11.8l-3.4-6.1zm-4 221c6.5 3.8 13.4 7.3 20.4 10.3l2.8-6.4c-6.8-3-13.5-6.3-19.7-10l-3.5 6.1zm-61.7-66.4c3 7 6.7 13.8 11.1 20.3l5.8-3.9c-4.1-6.1-7.7-12.6-10.5-19.1l-6.4 2.7zm1-66.6c1.7-6.9 4.1-13.8 7.3-20.5l-6.3-3c-3.4 7.1-6 14.4-7.8 21.8l6.8 1.7zm-2.9 23.7v-2.2l-7-.2v2.3c0 7 .7 14 2 20.8l6.9-1.4c-1.2-6.3-1.9-12.8-1.9-19.3zM901.7 812c-7.4 2.1-14.7 4.6-21.6 7.4l2.6 6.5c6.7-2.7 13.8-5.1 20.9-7.2l-1.9-6.7zm40.4 265.2c3.4.3 6.8.5 10.2.7l.3-7c-3.3-.2-6.6-.4-9.9-.7l-.6 7zm4.6-273.1c-7.6.5-15.2 1.5-22.7 2.8l1.2 6.9c7.2-1.2 14.6-2.2 22-2.7l-.5-7zm-49.4 264.4c7.2 2.2 14.7 4.1 22.2 5.5l1.3-6.9c-7.3-1.4-14.5-3.2-21.5-5.4l-2 6.8zm-72.9 491.3l-5.1 4.8c5.2 5.4 10.9 10.6 17.1 15.4l4.3-5.5c-5.9-4.6-11.4-9.5-16.3-14.7zm-1.8-160.8c-5.6 5.5-10.7 11.4-15.1 17.4l5.7 4.1c4.2-5.8 9-11.3 14.3-16.6l-4.9-4.9zm36.8-27.2c-6.8 3.7-13.3 7.9-19.3 12.3l4.1 5.6c5.8-4.3 12.1-8.2 18.6-11.8l-3.4-6.1zm-4 221c6.5 3.8 13.4 7.3 20.4 10.3l2.8-6.4c-6.8-3-13.5-6.3-19.7-10l-3.5 6.1zm-61.7-66.4c3 7 6.7 13.8 11.1 20.3l5.8-3.9c-4.1-6.1-7.7-12.6-10.5-19.1l-6.4 2.7zm1-66.6c1.7-6.9 4.1-13.8 7.3-20.5l-6.3-3c-3.4 7.1-6 14.4-7.8 21.8l6.8 1.7zm-2.9 23.7v-2.2l-7-.2v2.3c0 7 .7 14 2 20.8l6.9-1.4c-1.2-6.3-1.9-12.8-1.9-19.3zm109.9-128.9c-7.4 2.1-14.7 4.6-21.6 7.4l2.6 6.5c6.7-2.7 13.8-5.1 20.9-7.2l-1.9-6.7zm40.4 265.2c3.4.3 6.8.5 10.2.7l.3-7c-3.3-.2-6.6-.4-9.9-.7l-.6 7zm4.6-273.1c-7.6.5-15.2 1.5-22.7 2.8l1.2 6.9c7.2-1.2 14.6-2.2 22-2.7l-.5-7zm-49.4 264.4c7.2 2.2 14.7 4.1 22.2 5.5l1.3-6.9c-7.3-1.4-14.5-3.2-21.5-5.4l-2 6.8zm66.3-539.9h-5.5l-.2 7c1.9.1 3.8.1 5.7.1v-7.1zm5.6-527.3l.2-7c-1.9-.1-3.8-.1-5.7-.1v6.9c1.8.2 3.6.2 5.5.2zm95.3 24.8c6.5 3.6 12.8 7.6 18.6 11.8l4.1-5.6c-6-4.4-12.6-8.6-19.3-12.3l-3.4 6.1zm67.2 58.4l-6.3 3c3.2 6.6 5.6 13.5 7.3 20.5l6.8-1.6c-1.9-7.5-4.5-14.8-7.8-21.9zM1030 801.8l-2-6.7c-7 2.1-14.2 3.9-21.5 5.4l1.3 6.9c7.5-1.5 15-3.4 22.2-5.6zm89.8-194.6c-4.4-6.1-9.5-11.9-15.1-17.4l-4.9 5c5.3 5.2 10.1 10.8 14.3 16.6l5.7-4.2zm-47.9 176.4l-3.5-6c-6.2 3.6-12.9 7-19.7 10l2.8 6.4c7-3.1 13.9-6.6 20.4-10.4zm-86.7 27l-.6-7c-3.3.3-6.6.5-9.9.7l.3 7c3.4-.2 6.8-.4 10.2-.7zm38.5-258.5c7.1 2 14.2 4.4 20.9 7.2l2.6-6.5c-7-2.8-14.3-5.3-21.6-7.4l-1.9 6.7zm111.7 120v2.2c0 6.5-.6 13-1.9 19.4l6.9 1.4c1.3-6.8 2-13.8 2-20.8V672l-7 .1zm-27.4 83.3l-5.1-4.8c-4.9 5.2-10.4 10.1-16.3 14.7l4.3 5.5c6.2-4.8 11.9-10 17.1-15.4zm8.7-21.9l5.8 3.9c4.4-6.5 8.1-13.3 11.1-20.3l-6.4-2.7c-2.9 6.6-6.4 13-10.5 19.1zm-136.6-189c7.4.5 14.8 1.4 22 2.7l1.2-6.9c-7.4-1.3-15.1-2.2-22.7-2.8l-.5 7zm-10.9 260h-5.5v7h5.7l-.2-7zm0 278.8l.2-7h-5.7v7c1.8-.1 3.6-.1 5.5 0zm37.2 256.6l1.3 6.9c7.5-1.5 15-3.3 22.2-5.5l-2-6.7c-7 2-14.2 3.8-21.5 5.3zm42.3-13l2.8 6.4c7.1-3.1 14-6.5 20.4-10.3l-3.5-6c-6.3 3.6-12.9 6.9-19.7 9.9zm56-197.7l-4.9 5c5.3 5.2 10.1 10.8 14.3 16.6l5.7-4.1c-4.4-6.2-9.5-12-15.1-17.5zm-81-37.8c7.1 2 14.2 4.4 20.9 7.2l2.6-6.5c-7-2.8-14.3-5.3-21.6-7.4l-1.9 6.7zm-43.6-7.6c7.4.5 14.8 1.4 22 2.7l1.2-6.9c-7.4-1.3-15.1-2.2-22.7-2.8l-.5 7zm155.3 127.6v2.2c0 6.5-.6 13-1.9 19.4l6.9 1.4c1.3-6.8 2-13.8 2-20.8v-2.3l-7 .1zm-2.8-21.5l6.8-1.6c-1.8-7.4-4.4-14.8-7.8-21.8l-6.3 3c3.2 6.6 5.7 13.5 7.3 20.4zm-46 114.7l4.3 5.5c6.2-4.8 11.9-10 17.1-15.4l-5.1-4.8c-4.9 5.2-10.4 10.1-16.3 14.7zm-111.9 39.1l.3 7c3.4-.2 6.8-.4 10.2-.7l-.6-7c-3.3.3-6.7.5-9.9.7zm142-70.8l5.8 3.9c4.4-6.5 8.1-13.3 11.1-20.3l-6.4-2.7c-2.9 6.5-6.4 12.9-10.5 19.1zm-48.8-170.9l-3.4 6.1c6.5 3.6 12.8 7.6 18.6 11.8l4.1-5.6c-6-4.5-12.5-8.6-19.3-12.3zM969.4 2.1c-1.9-.1-3.8-.1-5.7-.1v7h5.5l.2-6.9zm150.4 70.3c-4.4-6.1-9.5-11.9-15.1-17.4l-4.9 5c5.3 5.2 10.1 10.8 14.3 16.6l5.7-4.2zm-28.9 163.5c6.2-4.8 11.9-10 17.1-15.4l-5.1-4.8c-4.9 5.2-10.4 10.1-16.3 14.7l4.3 5.5zm-3.7-195.8c-6-4.4-12.6-8.6-19.3-12.3l-3.4 6.1c6.5 3.6 12.8 7.6 18.6 11.8l4.1-5.6zm48.3 99.3c0 6.5-.6 13-1.9 19.4l6.9 1.4c1.3-6.8 2-13.8 2-20.8v-2.3l-7 .2v2.1zm3.9-25.3c-1.8-7.4-4.4-14.8-7.8-21.8l-6.3 3c3.2 6.6 5.6 13.5 7.3 20.5l6.8-1.7zm-5.8 68.2l-6.4-2.7c-2.8 6.5-6.3 13-10.5 19.1l5.8 3.9c4.4-6.5 8.1-13.3 11.1-20.3zM980.1 9.6c7.4.5 14.8 1.4 22 2.7l1.2-6.9c-7.4-1.3-15.1-2.2-22.7-2.8l-.5 7zm4.4 259.2c-3.3.3-6.6.5-9.9.7l.3 7c3.4-.2 6.8-.4 10.2-.7l-.6-7zm45.5-1.8l-2-6.7c-7 2.1-14.2 3.9-21.5 5.4l1.3 6.9c7.5-1.5 15-3.4 22.2-5.6zm17.2-249.1c-7-2.8-14.3-5.3-21.6-7.4l-1.9 6.7c7.1 2 14.2 4.4 20.9 7.2l2.6-6.5zm24.7 230.9l-3.5-6c-6.2 3.6-12.9 7-19.7 10l2.8 6.4c7-3.2 13.9-6.6 20.4-10.4zm-102.7 20.9h-5.5v7c1.9 0 3.8 0 5.7-.1l-.2-6.9zm-5.6 6.8v-7c-1.9 0-3.8 0-5.7.1l.2 7c1.8-.1 3.7-.1 5.5-.1zM855.4 516.2c6.5 3.8 13.4 7.3 20.4 10.3l2.8-6.4c-6.8-3-13.5-6.3-19.7-10l-3.5 6.1zm41.9 18.2c7.2 2.2 14.7 4.1 22.2 5.5l1.3-6.9c-7.3-1.4-14.5-3.2-21.5-5.4l-2 6.8zm-95.4-171.7l-6.3-3c-3.4 7.1-6 14.4-7.8 21.8l6.8 1.6c1.7-6.9 4.2-13.8 7.3-20.4zm60.9-61.4l-3.4-6.1c-6.8 3.7-13.3 7.9-19.3 12.3l4.1 5.6c5.8-4.2 12.1-8.2 18.6-11.8zm79.3 241.9c3.4.3 6.8.5 10.2.7l.3-7c-3.3-.2-6.6-.4-9.9-.7l-.6 7zM793.7 426.3c-1.3-6.4-1.9-12.9-1.9-19.4v-2.2l-7-.2v2.3c0 7 .7 14 2 20.8l6.9-1.3zm33.8-98.9l-4.9-5c-5.6 5.5-10.7 11.4-15.1 17.4l5.7 4.1c4.1-5.7 8.9-11.3 14.3-16.5zm-16.9 138.7c-4.1-6.1-7.7-12.6-10.5-19.1l-6.4 2.7c3 7 6.7 13.8 11.1 20.3l5.8-3.9zm8.7 21.9c5.2 5.4 10.9 10.6 17.1 15.4l4.3-5.5c-5.9-4.6-11.4-9.5-16.3-14.7l-5.1 4.8zm84.3-203.4l-1.9-6.7c-7.4 2.1-14.7 4.6-21.6 7.4l2.6 6.5c6.8-2.7 13.8-5.1 20.9-7.2zm43.6-7.5l-.5-7c-7.6.5-15.2 1.5-22.7 2.8l1.2 6.9c7.2-1.3 14.6-2.2 22-2.7zm10.7 267c1.9.1 3.8.1 5.7.1v-6.9h-5.5l-.2 6.8z"/><circle fill="#EAB220" stroke="#EAB220" stroke-miterlimit="10" cx="963.1" cy="1073.8" r="5.9"/><circle fill="#EAB220" stroke="#EAB220" stroke-miterlimit="10" cx="963.1" cy="1346.8" r="5.9"/><circle fill="#EAB220" stroke="#EAB220" stroke-miterlimit="10" cx="963.1" cy="803.9" r="5.9"/><circle fill="#EAB220" stroke="#EAB220" stroke-miterlimit="10" cx="963.6" cy="541.8" r="5.9"/><circle fill="#EAB220" stroke="#EAB220" stroke-miterlimit="10" cx="963.6" cy="271.9" r="5.9"/><circle fill="#EAB220" cx="963.6" cy="5.9" r="5.9"/></svg>