<svg xmlns="http://www.w3.org/2000/svg" viewBox="0 0 241.1 225"><linearGradient id="a" gradientUnits="userSpaceOnUse" x1="120.535" y1="225" x2="120.535"><stop offset="0" stop-color="#3181c4"/><stop offset="1" stop-color="#29ade4"/></linearGradient><path fill="url(#a)" d="M74.5 112.5c-13.6.4-24.7 5.8-33.3 16.1H24.4c-6.9 0-12.6-1.7-17.3-5.1-4.7-3.4-7-8.3-7-14.9 0-29.5 5.2-44.3 15.6-44.3.5 0 2.3.9 5.5 2.6 3.1 1.8 7.2 3.5 12.2 5.3 5 1.8 10 2.7 14.9 2.7 5.6 0 11.2-1 16.7-2.9-.4 3.1-.6 5.9-.6 8.3-.1 11.7 3.3 22.4 10.1 32.2zM70.9 9.4c6.3 6.3 9.4 13.9 9.4 22.7 0 8.9-3.1 16.4-9.4 22.7S57 64.2 48.2 64.2c-8.9 0-16.4-3.1-22.7-9.4S16.1 41 16.1 32.1c0-8.9 3.1-16.4 9.4-22.7S39.3 0 48.2 0c8.9 0 16.5 3.1 22.7 9.4zm138 183.1c0 10-3.1 18-9.2 23.8-6.1 5.8-14.2 8.7-24.4 8.7H65.7c-10.1 0-18.2-2.9-24.4-8.7-6.1-5.8-9.2-13.7-9.2-23.8 0-4.4.1-8.8.4-13 .3-4.2.9-8.8 1.8-13.7.9-4.9 2-9.4 3.3-13.6 1.3-4.2 3.1-8.3 5.4-12.2 2.3-4 4.9-7.4 7.8-10.2 2.9-2.8 6.5-5 10.7-6.7 4.2-1.7 8.9-2.5 14-2.5.8 0 2.6.9 5.4 2.7 2.8 1.8 5.8 3.8 9.2 6 3.3 2.2 7.8 4.2 13.4 6 5.6 1.8 11.3 2.7 17 2.7 5.7 0 11.3-.9 17-2.7 5.6-1.8 10.1-3.8 13.4-6 3.3-2.2 6.4-4.2 9.2-6 2.8-1.8 4.6-2.7 5.4-2.7 5.1 0 9.8.8 14 2.5 4.2 1.7 7.8 3.9 10.7 6.7 2.9 2.8 5.5 6.2 7.8 10.2 2.3 4 4.1 8.1 5.4 12.2 1.3 4.2 2.4 8.7 3.3 13.6.9 4.9 1.5 9.5 1.8 13.7.3 4.2.4 8.5.4 13zM154.6 46.3c9.4 9.4 14.1 20.8 14.1 34.1s-4.7 24.7-14.1 34.1c-9.4 9.4-20.8 14.1-34.1 14.1s-24.7-4.7-34.1-14.1C77 105 72.3 93.7 72.3 80.4S77 55.7 86.4 46.3c9.4-9.4 20.8-14.1 34.1-14.1s24.7 4.7 34.1 14.1zm61-36.9c6.3 6.3 9.4 13.9 9.4 22.7 0 8.9-3.1 16.4-9.4 22.7s-13.9 9.4-22.7 9.4c-8.9 0-16.4-3.1-22.7-9.4-6.3-6.3-9.4-13.9-9.4-22.7 0-8.9 3.1-16.4 9.4-22.7C176.4 3.1 184 0 192.9 0c8.8 0 16.4 3.1 22.7 9.4zm25.5 99.2c0 6.5-2.3 11.5-7 14.9-4.7 3.4-10.5 5.1-17.3 5.1H200c-8.6-10.3-19.7-15.7-33.3-16.1 6.8-9.8 10.2-20.5 10.2-32.1 0-2.4-.2-5.2-.6-8.3C181.8 74 187.4 75 193 75c4.9 0 9.9-.9 14.9-2.7 5-1.8 9.1-3.6 12.2-5.3 3.1-1.8 5-2.6 5.5-2.6 10.3-.1 15.5 14.7 15.5 44.2z"/></svg>